<?xml version="1.0" encoding="UTF-8"?> <svg xmlns="http://www.w3.org/2000/svg" xmlns:xlink="http://www.w3.org/1999/xlink" width="800px" height="746px" viewBox="0 0 800 746" version="1.1"><title>coding-monitor-svgrepo-com</title><g id="Page-1" stroke="none" stroke-width="1" fill="none" fill-rule="evenodd"><g id="coding-monitor-svgrepo-com" transform="translate(0.000000, 0.585938)" fill-rule="nonzero"><path d="M565.517188,744.828125 L234.482813,744.828125 C234.482813,714.359375 259.185938,689.65625 289.654688,689.65625 L510.34375,689.65625 C540.814063,689.654688 565.517188,714.359375 565.517188,744.828125" id="Path" fill="#E8EDEE"></path><polygon id="Path" fill="#B0B6BB" points="496.551563 689.654687 303.448438 689.654687 331.034375 579.310937 468.965625 579.310937"></polygon><path d="M800.001562,468.965625 L0,468.965625 L0,48.2765625 C0,21.6140625 21.6140625,-1.42108547e-14 48.2765625,-1.42108547e-14 L751.725,-1.42108547e-14 C778.3875,-1.42108547e-14 800.001562,21.6140625 800.001562,48.2765625 L800.001562,468.965625 L800.001562,468.965625 Z" id="Path" fill="#38454F"></path><path d="M751.723438,579.310937 L48.2765625,579.310937 C21.6140625,579.310937 0,557.696875 0,531.034375 L0,468.965625 L800,468.965625 L800,531.034375 C800,557.696875 778.385937,579.310937 751.723438,579.310937" id="Path" fill="#E8EDEE"></path><g id="Group" transform="translate(110.343750, 55.160365)" fill="#F16026"><path d="M565.51875,358.633385 L358.621875,358.633385 C350.99375,358.633385 344.828125,352.453698 344.828125,344.839635 C344.828125,337.225573 350.99375,331.045885 358.621875,331.045885 L565.51875,331.045885 C573.146875,331.045885 579.3125,337.225573 579.3125,344.839635 C579.3125,352.453698 573.145312,358.633385 565.51875,358.633385" id="Path"></path><path d="M151.725,275.87401 L13.79375,275.87401 C6.165625,275.87401 -2.84217094e-14,269.694323 -2.84217094e-14,262.08026 C-2.84217094e-14,254.466198 6.165625,248.28651 13.79375,248.28651 L151.725,248.28651 C159.353125,248.28651 165.51875,254.466198 165.51875,262.08026 C165.51875,269.694323 159.353125,275.87401 151.725,275.87401" id="Path"></path><path d="M496.553125,275.87401 L289.65625,275.87401 C282.028125,275.87401 275.8625,269.694323 275.8625,262.08026 C275.8625,254.466198 282.028125,248.28651 289.65625,248.28651 L496.553125,248.28651 C504.18125,248.28651 510.346875,254.466198 510.346875,262.08026 C510.346875,269.694323 504.179688,275.87401 496.553125,275.87401" id="Path"></path><path d="M220.690625,275.87401 C218.896875,275.87401 217.104688,275.459948 215.45,274.770885 C213.65625,274.081823 212.278125,273.116198 210.898437,271.87401 C208.401562,269.253698 206.898437,265.80526 206.898437,262.08026 C206.898437,258.35526 208.401562,254.908385 210.898437,252.28651 C212.278125,251.045885 213.657812,250.08026 215.45,249.389635 C220.401562,247.320885 226.621875,248.42401 230.484375,252.28651 C232.967187,254.906823 234.484375,258.49276 234.484375,262.08026 C234.484375,265.666198 232.967187,269.252135 230.484375,271.87401 C227.8625,274.356823 224.276563,275.87401 220.690625,275.87401" id="Path"></path><path d="M289.65625,358.633385 L82.759375,358.633385 C75.13125,358.633385 68.965625,352.453698 68.965625,344.839635 C68.965625,337.225573 75.13125,331.045885 82.759375,331.045885 L289.65625,331.045885 C297.284375,331.045885 303.45,337.225573 303.45,344.839635 C303.45,352.453698 297.284375,358.633385 289.65625,358.633385" id="Path"></path><path d="M13.79375,358.633385 C12,358.633385 10.2078125,358.219323 8.553125,357.53026 C6.8984375,356.841198 5.38125,355.875573 4.0015625,354.633385 C1.5046875,352.013073 0.0015625,348.564635 0.0015625,344.839635 C0.0015625,343.045885 0.415625,341.253698 1.1046875,339.59901 C1.79375,337.80526 2.759375,336.427135 4.0015625,335.047448 C7.3125,331.875573 12.0015625,330.495885 16.4015625,331.32401 C17.38125,331.46151 18.1953125,331.738073 19.0359375,332.152135 C19.85,332.428698 20.690625,332.841198 21.38125,333.39276 C22.1953125,333.944323 22.8984375,334.495885 23.5875,335.047448 C24.828125,336.427135 25.79375,337.806823 26.484375,339.59901 C27.1734375,341.253698 27.5875,343.047448 27.5875,344.839635 C27.5875,348.563073 26.0703125,352.01151 23.5875,354.633385 C22.8984375,355.184948 22.19375,355.73651 21.38125,356.288073 C20.6921875,356.839635 19.85,357.253698 19.0359375,357.528698 C18.1953125,357.94276 17.38125,358.21776 16.4015625,358.356823 C15.5875,358.494323 14.621875,358.633385 13.79375,358.633385" id="Path"></path><path d="M565.51875,275.87401 C564.678125,275.87401 563.725,275.73651 562.898438,275.597448 C561.932813,275.459948 561.104688,275.183385 560.278125,274.769323 C559.45,274.49276 558.623438,274.08026 557.78125,273.528698 C557.104687,272.977135 556.415625,272.425573 555.726562,271.87401 C553.229687,269.253698 551.726562,265.66776 551.726562,262.08026 C551.726562,258.494323 553.229687,254.908385 555.726562,252.28651 L557.78125,250.631823 C558.623438,250.08026 559.45,249.666198 560.278125,249.391198 C561.10625,248.977135 561.932813,248.702135 562.898438,248.563073 C567.3125,247.597448 572.126563,249.114635 575.3125,252.28651 C575.864063,252.975573 576.415625,253.666198 576.967188,254.49276 C577.51875,255.181823 577.91875,256.009948 578.207813,256.838073 C578.621875,257.666198 578.896875,258.49276 579.021875,259.458385 C579.173438,260.28651 579.310938,261.252135 579.310938,262.078698 C579.310938,262.90526 579.173438,263.872448 579.021875,264.838073 C578.898438,265.666198 578.621875,266.49276 578.207813,267.320885 C577.91875,268.14901 577.51875,268.975573 576.967188,269.803698 C576.415625,270.49276 575.864063,271.183385 575.3125,271.872448 C574.623438,272.42401 573.91875,272.975573 573.24375,273.527135 C572.415625,274.078698 571.575,274.49276 570.760938,274.76776 C569.920313,275.181823 569.10625,275.456823 568.126563,275.595885 C567.310938,275.73651 566.345313,275.87401 565.51875,275.87401" id="Path"></path><path d="M565.51875,110.356823 L358.621875,110.356823 C350.99375,110.356823 344.828125,104.177135 344.828125,96.5630727 C344.828125,88.9490102 350.99375,82.7693227 358.621875,82.7693227 L565.51875,82.7693227 C573.146875,82.7693227 579.3125,88.9490102 579.3125,96.5630727 C579.3125,104.177135 573.145312,110.356823 565.51875,110.356823" id="Path"></path><path d="M565.51875,193.116198 L427.5875,193.116198 C419.959375,193.116198 413.79375,186.93651 413.79375,179.322448 C413.79375,171.708385 419.959375,165.528698 427.5875,165.528698 L565.51875,165.528698 C573.146875,165.528698 579.3125,171.708385 579.3125,179.322448 C579.3125,186.93651 573.145312,193.116198 565.51875,193.116198" id="Path"></path><path d="M317.242187,193.116198 L289.65625,193.116198 C282.028125,193.116198 275.8625,186.93651 275.8625,179.322448 C275.8625,171.708385 282.028125,165.528698 289.65625,165.528698 L317.242187,165.528698 C324.870312,165.528698 331.035937,171.708385 331.035937,179.322448 C331.035937,186.93651 324.870312,193.116198 317.242187,193.116198" id="Path"></path><path d="M496.553125,27.5990102 L289.65625,27.5990102 C282.028125,27.5990102 275.8625,21.4193227 275.8625,13.8052602 C275.8625,6.19119774 282.028125,0.0115102425 289.65625,0.0115102425 L496.553125,0.0115102425 C504.18125,0.0115102425 510.346875,6.19119774 510.346875,13.8052602 C510.346875,21.4193227 504.179688,27.5990102 496.553125,27.5990102" id="Path"></path><path d="M565.51875,27.5990102 C564.678125,27.5990102 563.725,27.4615102 562.898438,27.3224477 C561.932813,27.1849477 561.104688,26.9083852 560.278125,26.4943227 C559.45,26.2177602 558.623438,25.8052602 557.78125,25.2536977 C557.104687,24.7021352 556.415625,24.1505727 555.726562,23.5990102 C553.229687,20.9786977 551.726562,17.3927602 551.726562,13.8052602 C551.726562,10.2193227 553.229687,6.63338524 555.726562,4.01151024 L557.78125,2.35682274 C558.623438,1.80526024 559.45,1.39119774 560.278125,1.11619774 C561.10625,0.702135243 561.932813,0.427135243 562.898438,0.288072743 C567.3125,-0.677552257 572.126563,0.839635243 575.3125,4.01151024 C575.864063,4.70057274 576.415625,5.39119774 576.967188,6.21776024 C577.51875,6.90682274 577.91875,7.73494774 578.207813,8.56307274 C578.621875,9.39119774 578.896875,10.2177602 579.021875,11.1833852 C579.173438,12.0115102 579.310938,12.9771352 579.310938,13.8036977 C579.310938,14.6302602 579.173438,15.5974477 579.021875,16.5630727 C578.898438,17.3911977 578.621875,18.2177602 578.207813,19.0458852 C577.91875,19.8740102 577.51875,20.7005727 576.967188,21.5286977 C576.415625,22.2177602 575.864063,22.9083852 575.3125,23.5974477 C574.623438,24.1490102 573.91875,24.7005727 573.24375,25.2521352 C572.415625,25.8036977 571.575,26.2177602 570.760938,26.4927602 C569.920313,26.9068227 569.10625,27.1818227 568.126563,27.3208852 C567.310938,27.4599477 566.345313,27.5990102 565.51875,27.5990102" id="Path"></path><path d="M303.45,110.356823 C299.864062,110.356823 296.264062,108.839635 293.65625,106.356823 C292.415625,104.977135 291.45,103.459948 290.759375,101.80526 C290.06875,100.150573 289.65625,98.3568227 289.65625,96.5646352 C289.65625,94.7708852 290.070312,92.9786977 290.759375,91.3240102 C291.448438,89.6693227 292.414063,88.1521352 293.65625,86.7724477 C296.828125,83.6005727 301.65625,82.2208852 306.05625,83.0490102 C307.035937,83.1865102 307.85,83.4630727 308.690625,83.8771352 C309.504687,84.1536977 310.345312,84.5661977 311.035937,85.1177602 C311.85,85.6693227 312.553125,86.2208852 313.104687,86.7724477 C314.484375,88.1521352 315.45,89.6693227 316.139062,91.3240102 C316.828125,92.9786977 317.242187,94.7724477 317.242187,96.5646352 C317.242187,98.3583852 316.828125,100.150573 316.139062,101.80526 C315.45,103.459948 314.484375,104.977135 313.104687,106.356823 C312.553125,106.908385 311.85,107.459948 311.035937,108.01151 C310.346875,108.563073 309.504687,108.977135 308.690625,109.252135 C307.85,109.666198 307.035937,109.941198 306.05625,110.08026 C305.242188,110.219323 304.276563,110.356823 303.45,110.356823" id="Path"></path><path d="M372.415625,193.116198 C368.678125,193.116198 365.229688,191.59901 362.621875,189.116198 C360.125,186.495885 358.621875,182.909948 358.621875,179.322448 C358.621875,175.73651 360.125,172.150573 362.621875,169.528698 C367.725,164.425573 377.104688,164.425573 382.207813,169.528698 C384.690625,172.14901 386.207813,175.734948 386.207813,179.322448 C386.207813,180.288073 386.070313,181.116198 385.91875,182.081823 C385.795313,182.909948 385.51875,183.73651 385.104688,184.564635 C384.815625,185.39276 384.415625,186.219323 383.864063,187.047448 C383.3125,187.73651 382.760938,188.427135 382.209375,189.116198 C379.5875,191.59901 376.139062,193.116198 372.415625,193.116198" id="Path"></path></g><polygon id="Path" fill="#FCB900" points="124.1375 248.276562 317.240625 248.276562 317.240625 55.1734375 124.1375 55.1734375"></polygon></g></g></svg> 